<svg width="1200" height="700" viewBox="0 0 1200 700" xmlns="http://www.w3.org/2000/svg">
  <rect width="1200" height="700" fill="#f8fbff"/>
  <rect y="340" width="1200" height="130" fill="#d9efc7"/>
  <rect y="470" width="1200" height="230" fill="#c99663"/>
  <rect y="560" width="1200" height="140" fill="#b37d4f"/>
  <g fill="#ffffff">
    <ellipse cx="350" cy="130" rx="110" ry="46"/>
    <ellipse cx="470" cy="120" rx="90" ry="40"/>
  </g>
  <g stroke="#69c6ea" stroke-width="10" stroke-linecap="round">
    <line x1="320" y1="175" x2="300" y2="300"/><line x1="380" y1="175" x2="360" y2="305"/><line x1="440" y1="175" x2="420" y2="302"/>
  </g>
  <g stroke="#6aa37d" stroke-width="6" fill="none" stroke-linecap="round">
    <path d="M710 470 C710 410,710 370,730 340"/>
    <path d="M760 470 C760 410,760 365,780 335"/>
  </g>
  <g stroke="#7f5839" stroke-width="5" fill="none" stroke-linecap="round">
    <path d="M722 395 C705 420,690 440,680 470"/>
    <path d="M722 405 C735 430,748 455,760 495"/>
    <path d="M772 390 C760 420,748 445,738 480"/>
    <path d="M772 405 C785 432,798 458,810 500"/>
  </g>
  <path d="M520 200 C558 210,578 252,560 286 C540 322,494 326,470 286 C452 252,480 212,520 200Z" fill="#67d0f0"/>
</svg>
